<svg xmlns="http://www.w3.org/2000/svg" x="0" y="0" width="24" height="24" viewBox="0 0 24 24">
    <defs>
        <symbol id="external-link" viewBox="0 0 24 24" stroke-linecap="round" stroke-linejoin="round">
            <path d="M18 13v6a2 2 0 0 1-2 2H5a2 2 0 0 1-2-2V8a2 2 0 0 1 2-2h6" />
            <polyline points="15 3 21 3 21 9" />
            <line x1="10" y1="14" x2="21" y2="3" />
        </symbol>
        <symbol id="mail" viewBox="0 0 24 24" stroke-linecap="round" stroke-linejoin="round">
            <path d="M4 4h16c1.1 0 2 .9 2 2v12c0 1.1-.9 2-2 2H4c-1.1 0-2-.9-2-2V6c0-1.1.9-2 2-2z" />
            <polyline points="22,6 12,13 2,6" />
        </symbol>
    </defs>
</svg>